<svg width="20" height="20" viewBox="0 0 20 20" fill="none" xmlns="http://www.w3.org/2000/svg">
<path fill-rule="evenodd" clip-rule="evenodd" d="M10 2C5.58172 2 2 5.58172 2 10C2 14.4183 5.58172 18 10 18C14.4183 18 18 14.4183 18 10C18 5.58172 14.4183 2 10 2ZM0 10C0 4.47715 4.47715 0 10 0C15.5228 0 20 4.47715 20 10C20 15.5228 15.5228 20 10 20C4.47715 20 0 15.5228 0 10ZM7.99112 8.02309C6.88165 9.13256 6.88165 10.9314 7.99112 12.0408C9.1006 13.1503 10.8994 13.1503 12.0089 12.0408C12.3994 11.6503 13.0326 11.6503 13.4231 12.0408C13.8136 12.4314 13.8136 13.0645 13.4231 13.4551C11.5326 15.3456 8.46743 15.3456 6.57691 13.4551C4.68639 11.5645 4.68639 8.49939 6.57691 6.60887C8.46743 4.71836 11.5326 4.71836 13.4231 6.60888C13.8136 6.9994 13.8136 7.63256 13.4231 8.02309C13.0326 8.41361 12.3994 8.41361 12.0089 8.02309C10.8994 6.91362 9.1006 6.91362 7.99112 8.02309Z" fill="#EAEAEA"/>
</svg>
