<svg width="14" height="10" viewBox="0 0 14 10" fill="none" xmlns="http://www.w3.org/2000/svg">
<path fill-rule="evenodd" clip-rule="evenodd" d="M0.400059 0.200059C0.841887 -0.131312 1.46869 -0.0417689 1.80006 0.400059L7.00006 7.33339L12.2001 0.400059C12.5314 -0.0417689 13.1582 -0.131312 13.6001 0.200059C14.0419 0.53143 14.1314 1.15823 13.8001 1.60006L7.80006 9.60006C7.6112 9.85186 7.31482 10.0001 7.00006 10.0001C6.6853 10.0001 6.38891 9.85186 6.20006 9.60006L0.200059 1.60006C-0.131312 1.15823 -0.0417689 0.53143 0.400059 0.200059Z" fill="#392A93"/>
<path fill-rule="evenodd" clip-rule="evenodd" d="M0.400059 0.200059C0.841887 -0.131312 1.46869 -0.0417689 1.80006 0.400059L7.00006 7.33339L12.2001 0.400059C12.5314 -0.0417689 13.1582 -0.131312 13.6001 0.200059C14.0419 0.53143 14.1314 1.15823 13.8001 1.60006L7.80006 9.60006C7.6112 9.85186 7.31482 10.0001 7.00006 10.0001C6.6853 10.0001 6.38891 9.85186 6.20006 9.60006L0.200059 1.60006C-0.131312 1.15823 -0.0417689 0.53143 0.400059 0.200059Z" fill="#392A93"/>
</svg>
