<svg width="97" height="186" viewBox="0 0 97 186" fill="none" xmlns="http://www.w3.org/2000/svg">
<path d="M72.9005 0.267236C72.0301 -0.170091 71.0453 -0.0426262 70.0289 0.445958C63.5015 3.58343 58.9078 10.0539 52.1897 12.7542C46.3375 15.1065 42.2079 21.0591 39.8008 26.0634C38.1259 29.5454 38.6576 34.2338 35.824 36.851C35.2439 37.3869 34.4988 37.7281 33.55 37.7281C29.4079 37.7281 8.69715 73.1079 4.555 85.5948C0.41285 98.0818 2.48396 91.8383 0.412889 108.488C0.00575459 111.761 -0.0762377 114.598 0.0624326 117.037C0.557965 125.751 6.19612 133.697 9.24617 141.87L10.7683 145.949C11.4586 147.336 14.9104 151.36 23.1947 156.354C26.862 158.565 30.1234 161.402 32.7993 164.178C37.9127 169.482 38.0365 182.118 44.6336 185.372C49.563 187.803 51.6049 182.761 50.608 177.335C50.4796 176.636 50.3181 175.886 50.1187 175.085C48.767 169.652 50.0801 162.003 51.3594 157.109C51.8574 155.204 52.6274 153.38 53.5253 151.629C65.2089 128.849 72.9756 122.905 74.9716 118.893C75.7897 117.249 76.0195 108.384 76.3688 106.58C76.7768 104.473 77.0426 101.698 77.0426 98.0818C77.0426 91.9819 78.1773 85.616 79.5559 80.2372C81.3985 73.0482 79.18 62.6577 85.3269 58.5398C88.0808 56.6949 90.5379 52.2097 92.4167 47.6323C94.8748 41.6433 92.3522 35.1979 89.4691 29.4035C87.8122 26.0736 92.9209 18.304 95.6823 14.8354C97.063 13.4479 97.7534 10.2568 89.4691 8.59188C79.1137 6.5107 77.0426 2.3484 72.9005 0.267236Z" fill="#392A93"/>
</svg>
