<svg width="20" height="20" viewBox="0 0 20 20" fill="none" xmlns="http://www.w3.org/2000/svg">
<path d="M11.78 7.46C11.7301 7.46 11.6807 7.46983 11.6346 7.48893C11.5885 7.50802 11.5466 7.53601 11.5113 7.5713C11.476 7.60659 11.448 7.64848 11.4289 7.69458C11.4098 7.74068 11.4 7.7901 11.4 7.84V9.51L10 7.65C9.96512 7.5934 9.91668 7.54639 9.85906 7.51321C9.80144 7.48004 9.73646 7.46175 9.67 7.46C9.6201 7.46 9.57068 7.46983 9.52458 7.48893C9.47848 7.50802 9.43659 7.53601 9.4013 7.5713C9.36601 7.60659 9.33802 7.64848 9.31893 7.69458C9.29983 7.74068 9.29 7.7901 9.29 7.84V10.68C9.29 10.7299 9.29983 10.7793 9.31893 10.8254C9.33802 10.8715 9.36601 10.9134 9.4013 10.9487C9.43659 10.984 9.47848 11.012 9.52458 11.0311C9.57068 11.0502 9.6201 11.06 9.67 11.06C9.7199 11.06 9.76932 11.0502 9.81542 11.0311C9.86152 11.012 9.90341 10.984 9.9387 10.9487C9.97399 10.9134 10.002 10.8715 10.0211 10.8254C10.0402 10.7793 10.05 10.7299 10.05 10.68V9L11.44 10.91C11.4754 10.9633 11.5285 11.0023 11.59 11.02C11.6361 11.0303 11.6839 11.0303 11.73 11.02C11.7739 11.0359 11.8206 11.0424 11.8671 11.039C11.9137 11.0355 11.959 11.0222 12 11L12.1 10.93C12.1702 10.8576 12.2096 10.7608 12.21 10.66V7.84C12.2105 7.7856 12.1993 7.73173 12.1771 7.68203C12.155 7.63234 12.1224 7.58798 12.0816 7.55195C12.0409 7.51592 11.9929 7.48907 11.9408 7.47321C11.8888 7.45734 11.8339 7.45284 11.78 7.46ZM7.2 10.27H6.14V7.84C6.14 7.73922 6.09996 7.64256 6.0287 7.5713C5.95744 7.50004 5.86078 7.46 5.76 7.46C5.65922 7.46 5.56256 7.50004 5.4913 7.5713C5.42004 7.64256 5.38 7.73922 5.38 7.84V10.68C5.38 10.7808 5.42004 10.8774 5.4913 10.9487C5.56256 11.02 5.65922 11.06 5.76 11.06H7.2C7.30172 11.06 7.39944 11.0203 7.4723 10.9493C7.54515 10.8783 7.58739 10.7817 7.59 10.68C7.59272 10.6271 7.58464 10.5743 7.56626 10.5246C7.54788 10.475 7.51958 10.4296 7.48309 10.3912C7.4466 10.3528 7.40268 10.3223 7.35402 10.3015C7.30535 10.2806 7.25294 10.2699 7.2 10.27ZM8.31 7.46C8.20828 7.45997 8.11056 7.49968 8.0377 7.57067C7.96485 7.64166 7.92261 7.73831 7.92 7.84V10.68C7.92261 10.7817 7.96485 10.8783 8.0377 10.9493C8.11056 11.0203 8.20828 11.06 8.31 11.06C8.41078 11.06 8.50744 11.02 8.5787 10.9487C8.64997 10.8774 8.69 10.7808 8.69 10.68V7.84C8.69 7.73922 8.64997 7.64256 8.5787 7.5713C8.50744 7.50004 8.41078 7.46 8.31 7.46ZM15.91 0H4.09C3.00608 0.00264051 1.9673 0.434398 1.20085 1.20085C0.434398 1.9673 0.00264051 3.00608 0 4.09V15.91C0.00264051 16.9939 0.434398 18.0327 1.20085 18.7992C1.9673 19.5656 3.00608 19.9974 4.09 20H15.91C16.9939 19.9974 18.0327 19.5656 18.7992 18.7992C19.5656 18.0327 19.9974 16.9939 20 15.91V4.09C19.9974 3.00608 19.5656 1.9673 18.7992 1.20085C18.0327 0.434398 16.9939 0.00264051 15.91 0ZM16.22 12.28C16.1806 12.3396 16.1372 12.3964 16.09 12.45C15.8515 12.7435 15.5835 13.0115 15.29 13.25C13.29 15.12 9.93 17.36 9.48 17.01C9.03 16.66 10.12 15.25 8.95 15.01C8.86699 15.0205 8.783 15.0205 8.7 15.01C5.26 14.53 2.7 12.12 2.7 9.23C2.7 5.98 5.99 3.35 10.04 3.35C14.09 3.35 17.38 5.98 17.38 9.23C17.3453 10.3478 16.9369 11.4217 16.22 12.28ZM14.51 7.47H13C12.8992 7.47 12.8026 7.51004 12.7313 7.5813C12.66 7.65256 12.62 7.74922 12.62 7.85V10.69C12.62 10.7399 12.6298 10.7893 12.6489 10.8354C12.668 10.8815 12.696 10.9234 12.7313 10.9587C12.7666 10.994 12.8085 11.022 12.8546 11.0411C12.9007 11.0602 12.9501 11.07 13 11.07H14.48C14.5299 11.07 14.5793 11.0602 14.6254 11.0411C14.6715 11.022 14.7134 10.994 14.7487 10.9587C14.784 10.9234 14.812 10.8815 14.8311 10.8354C14.8502 10.7893 14.86 10.7399 14.86 10.69C14.86 10.5892 14.82 10.4926 14.7487 10.4213C14.6774 10.35 14.5808 10.31 14.48 10.31H13.45V9.71H14.51C14.6117 9.70739 14.7083 9.66515 14.7793 9.5923C14.8503 9.51944 14.89 9.42172 14.89 9.32C14.89 9.21922 14.85 9.12256 14.7787 9.0513C14.7074 8.98003 14.6108 8.94 14.51 8.94H13.45V8.33H14.51C14.6108 8.33 14.7074 8.28996 14.7787 8.2187C14.85 8.14744 14.89 8.05078 14.89 7.95C14.9057 7.89252 14.9077 7.83215 14.8958 7.77377C14.8839 7.71538 14.8584 7.66062 14.8214 7.61389C14.7844 7.56717 14.737 7.52981 14.6829 7.50481C14.6288 7.47981 14.5696 7.46789 14.51 7.47Z" fill="#FEFEFE"/>
</svg>
