<svg width="16" height="20" viewBox="0 0 16 20" fill="none" xmlns="http://www.w3.org/2000/svg">
<path fill-rule="evenodd" clip-rule="evenodd" d="M8 2.05128C4.70885 2.05128 2.13333 4.47865 2.13333 7.36597C2.13333 7.9847 2.46289 8.96295 3.10443 10.1991C3.72498 11.3948 4.56305 12.6947 5.41691 13.9087C6.26817 15.119 7.12145 16.2246 7.76299 17.0287C7.84573 17.1324 7.92489 17.231 8 17.3241C8.07511 17.231 8.15427 17.1324 8.23701 17.0287C8.87855 16.2246 9.73183 15.119 10.5831 13.9087C11.437 12.6947 12.275 11.3948 12.8956 10.1991C13.5371 8.96295 13.8667 7.9847 13.8667 7.36597C13.8667 4.47865 11.2912 2.05128 8 2.05128ZM8 18.9744C7.17614 19.6258 7.17604 19.6257 7.17592 19.6256L7.17554 19.6251L7.17431 19.6237L7.16998 19.6186L7.15395 19.5998L7.09355 19.5284C7.04111 19.4662 6.96488 19.3753 6.86824 19.2588C6.67501 19.0259 6.39997 18.6904 6.07035 18.2772C5.41188 17.4519 4.53183 16.312 3.64976 15.0579C2.77028 13.8075 1.87502 12.4242 1.19557 11.115C0.537113 9.84628 0 8.49806 0 7.36597C0 3.24996 3.6328 0 8 0C12.3672 0 16 3.24996 16 7.36597C16 8.49806 15.4629 9.84628 14.8044 11.115C14.125 12.4242 13.2297 13.8075 12.3502 15.0579C11.4682 16.312 10.5881 17.4519 9.92966 18.2772C9.60003 18.6904 9.32499 19.0259 9.13176 19.2588C9.03512 19.3753 8.95889 19.4662 8.90645 19.5284L8.84606 19.5998L8.83003 19.6186L8.82569 19.6237L8.82446 19.6251L8.82408 19.6256C8.82396 19.6257 8.82386 19.6258 8 18.9744ZM8 18.9744L8.82386 19.6258C8.62125 19.8627 8.319 20 8 20C7.68101 20 7.37875 19.8627 7.17614 19.6258L8 18.9744ZM8 6.15385C7.11634 6.15385 6.4 6.84264 6.4 7.69231C6.4 8.54198 7.11634 9.23077 8 9.23077C8.88366 9.23077 9.6 8.54198 9.6 7.69231C9.6 6.84264 8.88366 6.15385 8 6.15385ZM4.26667 7.69231C4.26667 5.70975 5.93814 4.10256 8 4.10256C10.0619 4.10256 11.7333 5.70975 11.7333 7.69231C11.7333 9.67487 10.0619 11.2821 8 11.2821C5.93814 11.2821 4.26667 9.67487 4.26667 7.69231Z" fill="#392A93"/>
</svg>
