<svg width="20" height="20" viewBox="0 0 20 20" fill="none" xmlns="http://www.w3.org/2000/svg">
<path fill-rule="evenodd" clip-rule="evenodd" d="M8.67976 2C5.01399 2 2.0423 4.91015 2.0423 8.5C2.0423 12.0899 5.01399 15 8.67976 15C12.3455 15 15.3172 12.0899 15.3172 8.5C15.3172 4.91015 12.3455 2 8.67976 2ZM0 8.5C0 3.80558 3.88606 0 8.67976 0C13.4735 0 17.3595 3.80558 17.3595 8.5C17.3595 10.5926 16.5873 12.5087 15.3067 13.9897L19.7009 18.2929C20.0997 18.6834 20.0997 19.3166 19.7009 19.7071C19.3021 20.0976 18.6556 20.0976 18.2568 19.7071L13.8127 15.3551C12.3751 16.3892 10.6003 17 8.67976 17C3.88606 17 0 13.1944 0 8.5Z" fill="#392A93"/>
</svg>
