<svg width="22" height="22" viewBox="0 0 22 22" fill="none" xmlns="http://www.w3.org/2000/svg">
<path fill-rule="evenodd" clip-rule="evenodd" d="M11 0C11.5523 0 12 0.447715 12 1V3C12 3.55228 11.5523 4 11 4C10.4477 4 10 3.55228 10 3V1C10 0.447715 10.4477 0 11 0ZM3.5147 2.92897C3.90522 2.53845 4.53839 2.53845 4.92891 2.92897L6.34313 4.34319C6.73365 4.73371 6.73365 5.36688 6.34312 5.7574C5.9526 6.14792 5.31944 6.14792 4.92891 5.7574L3.5147 4.34319C3.12417 3.95266 3.12417 3.3195 3.5147 2.92897ZM19.0711 3.51476C19.4616 3.90528 19.4616 4.53845 19.0711 4.92897L17.6569 6.34319C17.2663 6.73371 16.6332 6.73371 16.2427 6.34319C15.8521 5.95266 15.8521 5.3195 16.2427 4.92897L17.6569 3.51476C18.0474 3.12423 18.6806 3.12423 19.0711 3.51476ZM11 7C8.79086 7 7 8.79086 7 11C7 13.2091 8.79086 15 11 15C13.2091 15 15 13.2091 15 11C15 8.79086 13.2091 7 11 7ZM5 11C5 7.68629 7.68629 5 11 5C14.3137 5 17 7.68629 17 11C17 14.3137 14.3137 17 11 17C7.68629 17 5 14.3137 5 11ZM0 11C0 10.4477 0.447715 10 1 10H3C3.55228 10 4 10.4477 4 11C4 11.5523 3.55228 12 3 12H1C0.447715 12 0 11.5523 0 11ZM18 11C18 10.4477 18.4477 10 19 10H21C21.5523 10 22 10.4477 22 11C22 11.5523 21.5523 12 21 12H19C18.4477 12 18 11.5523 18 11ZM16.2427 15.6569C16.6332 15.2664 17.2664 15.2664 17.6569 15.6569L19.0711 17.0711C19.4616 17.4616 19.4616 18.0948 19.0711 18.4853C18.6806 18.8758 18.0474 18.8758 17.6569 18.4853L16.2427 17.0711C15.8521 16.6806 15.8521 16.0474 16.2427 15.6569ZM6.34312 16.2427C6.73365 16.6332 6.73365 17.2664 6.34312 17.6569L4.92891 19.0711C4.53838 19.4616 3.90522 19.4616 3.5147 19.0711C3.12417 18.6806 3.12417 18.0474 3.51469 17.6569L4.92891 16.2427C5.31943 15.8521 5.9526 15.8521 6.34312 16.2427ZM11 18C11.5523 18 12 18.4477 12 19V21C12 21.5523 11.5523 22 11 22C10.4477 22 10 21.5523 10 21V19C10 18.4477 10.4477 18 11 18Z" fill="#392A93"/>
</svg>
