<svg width="16" height="16" viewBox="0 0 16 16" fill="none" xmlns="http://www.w3.org/2000/svg">
<path fill-rule="evenodd" clip-rule="evenodd" d="M4.11983 1.39061C4.06627 1.15177 3.84767 0.986822 3.6033 1.00085L1.45616 1.1241C1.19296 1.13921 0.993787 1.35883 1.00016 1.60919C1.15129 7.54605 3.23139 10.8729 5.77364 12.6569C8.34001 14.4577 11.4683 14.7506 13.8084 14.4307C14.0113 14.403 14.1803 14.2155 14.1727 13.9634L14.1183 12.1698C14.112 11.9644 13.9809 11.7838 13.7875 11.7143L10.7658 10.629C10.5442 10.5495 10.2971 10.6352 10.1725 10.835L9.31405 12.2112C8.97659 12.7522 8.30411 13.0524 7.65198 12.8339C4.02641 11.619 3.01478 8.62785 2.95188 6.86784C2.93658 6.43985 3.13462 6.06503 3.41191 5.80902L4.60756 4.70509C4.73863 4.58407 4.7953 4.40239 4.75626 4.22831L4.11983 1.39061ZM3.54599 0.00249291C4.2791 -0.0395885 4.9349 0.455253 5.09559 1.17177L5.73202 4.00947C5.84914 4.5317 5.67915 5.07676 5.28592 5.43982L4.09027 6.54374C3.98839 6.63781 3.94811 6.74437 3.95124 6.83212C4.00372 8.30033 4.8457 10.8389 7.96969 11.8857C8.13632 11.9415 8.34604 11.8736 8.4656 11.6819L9.32406 10.3057C9.69788 9.70647 10.4391 9.44917 11.1038 9.6879L14.1255 10.7732C14.7056 10.9815 15.0991 11.5234 15.1178 12.1395L15.1722 13.9331C15.1939 14.6485 14.6998 15.3182 13.9438 15.4215C11.4374 15.7642 8.03201 15.4632 5.19924 13.4754C2.34233 11.4707 0.157793 7.81422 0.000484071 1.63463C-0.0199623 0.831433 0.609897 0.171028 1.39886 0.125741L3.54599 0.00249291Z" fill="#392A93"/>
</svg>
